<svg width="342" height="904" viewBox="0 0 342 904" fill="none" xmlns="http://www.w3.org/2000/svg">
<g style="mix-blend-mode:multiply" opacity="0.16">
<mask id="mask0" style="mask-type:alpha" maskUnits="userSpaceOnUse" x="-491" y="125" width="677" height="600">
<path d="M-222.805 153.236C-373.5 164.699 -445.535 352.776 -462.716 445.382C-466.671 461.506 -470.543 505.966 -454.392 554.811C-434.205 615.869 -311.092 572.057 -258.674 587.394C-206.257 602.73 -155.316 653.887 -76.0869 684.828C3.14249 715.769 59.3885 648.898 54.7322 571.116C50.0759 493.334 193.622 524.844 159.131 358.592C124.641 192.341 -34.4356 138.908 -222.805 153.236Z" fill="#0B56FA"/>
</mask>
<g mask="url(#mask0)">
<rect x="271.748" y="794.752" width="1032.66" height="6.86915" transform="rotate(-162.276 271.748 794.752)" fill="#828282"/>
<rect x="277.326" y="777.304" width="1032.66" height="6.86915" transform="rotate(-162.276 277.326 777.304)" fill="#828282"/>
<rect x="282.903" y="759.855" width="1032.66" height="6.86915" transform="rotate(-162.276 282.903 759.855)" fill="#828282"/>
<rect x="288.479" y="742.407" width="1032.66" height="6.86915" transform="rotate(-162.276 288.479 742.407)" fill="#828282"/>
<rect x="294.056" y="724.959" width="1032.66" height="6.86915" transform="rotate(-162.276 294.056 724.959)" fill="#828282"/>
<rect x="299.632" y="707.51" width="1032.66" height="6.86915" transform="rotate(-162.276 299.632 707.51)" fill="#828282"/>
<rect x="305.208" y="690.062" width="1032.66" height="6.86915" transform="rotate(-162.276 305.208 690.062)" fill="#828282"/>
<rect x="310.784" y="672.614" width="1032.66" height="6.86915" transform="rotate(-162.276 310.784 672.614)" fill="#828282"/>
<rect x="316.361" y="655.166" width="1032.66" height="6.86915" transform="rotate(-162.276 316.361 655.166)" fill="#828282"/>
<rect x="321.937" y="637.717" width="1032.66" height="6.86915" transform="rotate(-162.276 321.937 637.717)" fill="#828282"/>
<rect x="327.514" y="620.269" width="1032.66" height="6.86915" transform="rotate(-162.276 327.514 620.269)" fill="#828282"/>
<rect x="333.09" y="602.821" width="1032.66" height="6.86915" transform="rotate(-162.276 333.09 602.821)" fill="#828282"/>
<rect x="338.666" y="585.372" width="1032.66" height="6.86915" transform="rotate(-162.276 338.666 585.372)" fill="#828282"/>
<rect x="344.242" y="567.924" width="1032.66" height="6.86915" transform="rotate(-162.276 344.242 567.924)" fill="#828282"/>
<rect x="349.819" y="550.476" width="1032.66" height="6.86915" transform="rotate(-162.276 349.819 550.476)" fill="#828282"/>
<rect x="355.395" y="533.027" width="1032.66" height="6.86915" transform="rotate(-162.276 355.395 533.027)" fill="#828282"/>
<rect x="360.971" y="515.579" width="1032.66" height="6.86915" transform="rotate(-162.276 360.971 515.579)" fill="#828282"/>
<rect x="366.548" y="498.131" width="1032.66" height="6.86915" transform="rotate(-162.276 366.548 498.131)" fill="#828282"/>
<rect x="372.125" y="480.682" width="1032.66" height="6.86915" transform="rotate(-162.276 372.125 480.682)" fill="#828282"/>
<rect x="377.701" y="463.234" width="1032.66" height="6.86915" transform="rotate(-162.276 377.701 463.234)" fill="#828282"/>
<rect x="383.277" y="445.786" width="1032.66" height="6.86915" transform="rotate(-162.276 383.277 445.786)" fill="#828282"/>
<rect x="389.551" y="426.156" width="1032.66" height="6.86915" transform="rotate(-162.276 389.551 426.156)" fill="#828282"/>
<rect x="395.824" y="406.527" width="1032.66" height="6.86915" transform="rotate(-162.276 395.824 406.527)" fill="#828282"/>
<rect x="402.097" y="386.898" width="1032.66" height="6.86915" transform="rotate(-162.276 402.097 386.898)" fill="#828282"/>
<rect x="408.371" y="367.269" width="1032.66" height="6.86915" transform="rotate(-162.276 408.371 367.269)" fill="#828282"/>
<rect x="414.644" y="347.639" width="1032.66" height="6.86915" transform="rotate(-162.276 414.644 347.639)" fill="#828282"/>
<rect x="420.917" y="328.01" width="1032.66" height="6.86915" transform="rotate(-162.276 420.917 328.01)" fill="#828282"/>
</g>
</g>
</svg>
