<svg width="237" height="60" viewBox="0 0 237 60" fill="none" xmlns="http://www.w3.org/2000/svg">
<path d="M12.4916 28.5181C12.4917 28.1826 12.558 27.8504 12.6868 27.5406C12.8156 27.2308 13.0044 26.9495 13.2422 26.7128C13.48 26.4762 13.7622 26.2888 14.0726 26.1615C14.3831 26.0342 14.7156 25.9695 15.0511 25.9711L19.2944 25.9849C19.971 25.9849 20.6199 26.2537 21.0983 26.7321C21.5767 27.2105 21.8455 27.8594 21.8455 28.536V44.5821C22.3234 44.4405 22.935 44.2894 23.6081 44.131C24.0744 44.0212 24.4899 43.7572 24.7874 43.3818C25.0848 43.0063 25.2468 42.5413 25.2469 42.0623V22.1596C25.2469 21.483 25.5156 20.834 25.994 20.3556C26.4724 19.8771 27.1213 19.6082 27.7979 19.608H32.0541C32.7307 19.6082 33.3796 19.8771 33.858 20.3556C34.3364 20.834 34.6051 21.483 34.6051 22.1596V40.6325C34.6051 40.6325 35.6699 40.2016 36.7065 39.7638C37.0917 39.6009 37.4204 39.3282 37.6516 38.9797C37.8828 38.6312 38.0062 38.2223 38.0065 37.8041V15.7817C38.0065 15.1052 38.2752 14.4564 38.7535 13.978C39.2319 13.4996 39.8806 13.2308 40.5571 13.2307H44.8088C45.485 13.2313 46.1332 13.5004 46.6111 13.9787C47.089 14.4571 47.3574 15.1056 47.3574 15.7817V33.9164C51.0436 31.245 54.7792 28.0318 57.7438 24.1683C58.1739 23.6075 58.4585 22.949 58.5723 22.2514C58.686 21.5539 58.6253 20.839 58.3956 20.1707C57.0233 16.2226 54.8419 12.6044 51.991 9.54777C49.1402 6.4911 45.6826 4.06324 41.8396 2.41952C37.9965 0.775807 33.8527 -0.0475577 29.6732 0.0021214C25.4937 0.0518005 21.3706 0.973426 17.5677 2.70802C13.7649 4.44262 10.366 6.95199 7.58857 10.0756C4.81116 13.1991 2.7164 16.8681 1.43833 20.8477C0.160253 24.8273 -0.272983 29.0298 0.166341 33.1865C0.605664 37.3431 1.90787 41.3623 3.98964 44.9868C4.35232 45.612 4.88593 46.1208 5.52775 46.4533C6.16957 46.7857 6.89294 46.9282 7.6129 46.8638C8.41719 46.7929 9.41859 46.6929 10.6092 46.5532C11.1273 46.4943 11.6057 46.2468 11.9532 45.8579C12.3007 45.4691 12.4931 44.966 12.4936 44.4445V28.5181" fill="#12161C"/>
<path d="M12.4009 54.2521C16.8825 57.5124 22.1787 59.4694 27.7036 59.9065C33.2284 60.3436 38.7665 59.2439 43.7051 56.7289C48.6437 54.2139 52.7902 50.3817 55.6861 45.6563C58.5819 40.931 60.114 35.4966 60.113 29.9545C60.113 29.2611 60.0808 28.5787 60.0347 27.8982C49.0584 44.2688 28.7917 51.9219 12.4009 54.2521Z" fill="#F0B90B"/>
<path d="M85.9672 29.3997C87.5768 29.6953 89.0296 30.5515 90.0679 31.8165C91.103 33.0611 91.6582 34.6353 91.6329 36.254C91.6329 38.5784 90.8537 40.4207 89.2953 41.781C87.7369 43.1413 85.4785 43.8214 82.5202 43.8214H71.387V15.8496H82.3221C85.122 15.8496 87.2681 16.4769 88.7604 17.7315C90.2528 18.9862 90.999 20.7097 90.999 22.902C91.0707 24.4553 90.5782 25.9822 89.6122 27.2008C88.6676 28.3094 87.3884 29.0811 85.9672 29.3997ZM75.9037 27.8941H81.4901C83.0749 27.8941 84.2833 27.5243 85.1154 26.7848C85.5377 26.393 85.8685 25.913 86.0842 25.3788C86.2999 24.8447 86.3952 24.2696 86.3634 23.6944C86.3926 23.1254 86.296 22.5569 86.0802 22.0296C85.8645 21.5022 85.535 21.029 85.1154 20.6436C84.2833 19.9041 83.0221 19.5343 81.3316 19.5343H75.9037V27.8941ZM81.609 40.0971C83.3258 40.0971 84.6531 39.7075 85.5908 38.9283C86.0607 38.5282 86.432 38.0252 86.6759 37.4583C86.9198 36.8914 87.0298 36.276 86.9973 35.6597C87.028 35.0388 86.9153 34.4192 86.668 33.849C86.4206 33.2787 86.0453 32.773 85.571 32.3712C84.6201 31.5788 83.2862 31.1826 81.5694 31.1826H75.9037V40.0971H81.609ZM103.043 21.7134C105.606 21.7134 107.659 22.3671 109.204 23.6746C110.767 25.0128 111.776 26.8837 112.037 28.9242H107.758C107.615 27.8135 107.073 26.7926 106.233 26.0518C105.303 25.2915 104.124 24.9033 102.925 24.9622C101.977 24.9015 101.039 25.1905 100.29 25.7744C99.9805 26.0483 99.7362 26.3879 99.5751 26.7684C99.414 27.1489 99.3401 27.5606 99.3588 27.9734C99.3465 28.2827 99.4001 28.591 99.5163 28.878C99.6324 29.1649 99.8083 29.4238 100.032 29.6374C100.518 30.0818 101.092 30.4193 101.716 30.6279C102.659 30.9411 103.618 31.2056 104.589 31.4203C105.942 31.7069 107.273 32.0909 108.571 32.5693C109.587 32.9654 110.487 33.6129 111.185 34.4513C111.958 35.451 112.345 36.6959 112.275 37.9576C112.298 38.8082 112.121 39.6522 111.76 40.4226C111.399 41.193 110.863 41.8684 110.195 42.3951C108.808 43.5309 106.939 44.0988 104.589 44.0988C101.868 44.0988 99.6692 43.4649 97.9919 42.197C97.1564 41.5606 96.4575 40.7626 95.9368 39.8505C95.4161 38.9385 95.0842 37.9309 94.961 36.8879H99.3588C99.4114 37.4527 99.5791 38.0007 99.8517 38.4982C100.124 38.9956 100.496 39.4319 100.944 39.7802C101.994 40.5601 103.282 40.9521 104.589 40.8895C105.518 40.9426 106.432 40.6378 107.144 40.0377C107.447 39.7669 107.687 39.4334 107.847 39.0606C108.008 38.6877 108.086 38.2843 108.075 37.8784C108.092 37.5415 108.037 37.2048 107.914 36.8907C107.791 36.5765 107.603 36.292 107.362 36.0559C106.848 35.5841 106.241 35.2263 105.579 35.0059C104.619 34.6888 103.639 34.4308 102.647 34.2333C101.338 33.9437 100.048 33.5732 98.7843 33.124C97.7958 32.7556 96.9213 32.1339 96.2486 31.3213C95.5043 30.3542 95.1318 29.1522 95.1987 27.9337C95.1743 27.0744 95.3494 26.2211 95.7103 25.4409C96.0712 24.6606 96.6081 23.9747 97.2788 23.4369C98.6655 22.2879 100.587 21.7134 103.043 21.7134ZM126.499 21.7134C129.325 21.7134 131.662 22.4596 133.511 23.9519C135.38 25.4774 136.609 27.647 136.958 30.0336H132.164C131.956 28.7528 131.269 27.5988 130.243 26.8046C129.136 25.9967 127.789 25.585 126.419 25.6358C125.604 25.6162 124.793 25.7704 124.042 26.088C123.291 26.4056 122.615 26.8795 122.061 27.4781C120.899 28.7063 120.318 30.5091 120.318 32.8863C120.318 35.2635 120.899 37.0728 122.061 38.3142C122.612 38.9179 123.287 39.3965 124.038 39.7177C124.79 40.0389 125.602 40.1953 126.419 40.1764C127.792 40.227 129.141 39.8077 130.243 38.9878C131.267 38.1833 131.953 37.0241 132.164 35.7389H136.958C136.606 38.1301 135.378 40.3049 133.511 41.8404C131.662 43.346 129.325 44.0988 126.499 44.0988C124.545 44.1377 122.615 43.6739 120.892 42.7517C119.269 41.8548 117.941 40.5059 117.069 38.8689C116.108 37.0243 115.631 34.9657 115.682 32.8863C115.633 30.8198 116.111 28.7747 117.069 26.9432C117.941 25.3062 119.269 23.9574 120.892 23.0605C122.615 22.1383 124.545 21.6744 126.499 21.7134ZM159.7 36.3728C159.709 37.7119 159.368 39.0299 158.71 40.1962C158.005 41.4145 156.958 42.3993 155.699 43.029C154.16 43.7853 152.46 44.1526 150.746 44.0988C148.99 44.1281 147.248 43.7837 145.635 43.0885C144.206 42.4755 142.963 41.4988 142.03 40.2556C141.128 39.0301 140.592 37.5738 140.485 36.0559H145.318C145.442 37.2547 145.998 38.3674 146.883 39.1859C147.378 39.6339 147.957 39.98 148.586 40.2043C149.214 40.4287 149.881 40.5269 150.548 40.4933C151.127 40.5299 151.707 40.4506 152.255 40.2601C152.802 40.0696 153.306 39.7718 153.738 39.384C154.112 39.0122 154.406 38.5668 154.601 38.0758C154.795 37.5849 154.886 37.059 154.867 36.5313C154.902 35.6318 154.606 34.7505 154.035 34.0551C153.47 33.4001 152.766 32.8791 151.974 32.5297C151.156 32.1599 150.033 31.7373 148.607 31.2618C147.146 30.8188 145.722 30.2624 144.348 29.5978C143.235 29.0292 142.277 28.2 141.554 27.181C140.738 25.952 140.336 24.4945 140.405 23.0208C140.376 21.6196 140.762 20.241 141.515 19.0588C142.292 17.8909 143.394 16.9753 144.684 16.4241C146.184 15.7779 147.806 15.4604 149.439 15.493C152.291 15.493 154.556 16.1798 156.234 17.5533C157.052 18.2106 157.728 19.027 158.222 19.9532C158.716 20.8793 159.016 21.8959 159.106 22.9416H154.233C154.054 21.8966 153.531 20.9413 152.747 20.2276C151.833 19.4358 150.646 19.0308 149.439 19.0984C148.338 19.0435 147.255 19.3883 146.388 20.0691C145.997 20.4172 145.691 20.8496 145.492 21.3335C145.293 21.8173 145.206 22.3401 145.239 22.8624C145.207 23.7185 145.488 24.557 146.031 25.2198C146.578 25.8542 147.262 26.3555 148.032 26.6857C148.838 27.0423 149.941 27.4583 151.34 27.9337C152.829 28.3782 154.28 28.9413 155.679 29.6176C156.817 30.1988 157.796 31.0488 158.532 32.0939C159.364 33.3607 159.773 34.8588 159.7 36.3728ZM173.924 21.7134C176.75 21.7134 179.088 22.4596 180.937 23.9519C182.805 25.4774 184.035 27.647 184.384 30.0336H179.59C179.381 28.7528 178.694 27.5988 177.668 26.8046C176.561 25.9967 175.214 25.585 173.845 25.6358C173.029 25.6162 172.219 25.7704 171.467 26.088C170.716 26.4056 170.041 26.8795 169.487 27.4781C168.324 28.7063 167.743 30.5091 167.743 32.8863C167.743 35.2635 168.324 37.0728 169.487 38.3142C170.038 38.9179 170.712 39.3965 171.464 39.7177C172.216 40.0389 173.027 40.1953 173.845 40.1764C175.217 40.227 176.566 39.8077 177.668 38.9878C178.692 38.1833 179.378 37.0241 179.59 35.7389H184.384C184.032 38.1301 182.803 40.3049 180.937 41.8404C179.088 43.346 176.75 44.0988 173.924 44.0988C171.971 44.1377 170.04 43.6739 168.318 42.7517C166.694 41.8548 165.366 40.5059 164.494 38.8689C163.533 37.0243 163.056 34.9657 163.108 32.8863C163.059 30.8198 163.536 28.7747 164.494 26.9432C165.366 25.3062 166.694 23.9574 168.318 23.0605C170.04 22.1383 171.971 21.6744 173.924 21.7134ZM197.498 21.7134C199.3 21.6607 201.073 22.1733 202.569 23.1793C203.946 24.1262 204.987 25.4858 205.541 27.0621V21.9907H210.058V43.8214H205.541V38.75C204.987 40.3263 203.946 41.6859 202.569 42.6328C201.073 43.6388 199.3 44.1514 197.498 44.0988C195.709 44.1289 193.947 43.6626 192.407 42.7517C190.887 41.8237 189.669 40.475 188.9 38.8689C188.016 37.0011 187.582 34.9521 187.633 32.8863C187.585 30.8334 188.019 28.7979 188.9 26.9432C189.669 25.3371 190.887 23.9884 192.407 23.0605C193.947 22.1495 195.709 21.6832 197.498 21.7134ZM198.885 25.6754C197.992 25.6353 197.101 25.7859 196.271 26.1173C195.441 26.4486 194.691 26.953 194.071 27.597C192.869 28.878 192.268 30.6411 192.268 32.8863C192.268 35.1314 192.869 36.8945 194.071 38.1756C194.691 38.8195 195.441 39.3239 196.271 39.6553C197.101 39.9866 197.992 40.1372 198.885 40.0971C200.081 40.1162 201.259 39.8079 202.292 39.2057C203.303 38.6041 204.126 37.7329 204.669 36.6898C205.272 35.5144 205.572 34.2069 205.541 32.8863C205.567 31.5724 205.268 30.2725 204.669 29.1025C204.13 28.0512 203.307 27.1725 202.292 26.5668C201.259 25.9646 200.081 25.6564 198.885 25.6754ZM227.689 21.6341C230.224 21.6341 232.258 22.4529 233.79 24.0906C235.322 25.7282 236.088 28.0658 236.088 31.1034V43.8214H231.571V31.5788C231.571 29.6242 231.07 28.112 230.066 27.0423C229.532 26.498 228.889 26.0734 228.178 25.7968C227.468 25.5201 226.707 25.3977 225.945 25.4377C225.144 25.4025 224.345 25.5379 223.601 25.835C222.856 26.1322 222.183 26.5842 221.627 27.1611C220.544 28.3101 220.002 29.994 220.002 32.2127V43.8214H215.486V21.9907H220.002V26.7848C220.524 25.2235 221.557 23.8836 222.934 22.9812C224.35 22.0708 226.005 21.6019 227.689 21.6341Z" fill="#12161C"/>
</svg>
