<svg width="219" height="60" viewBox="0 0 219 60" fill="none" xmlns="http://www.w3.org/2000/svg">
<path fill-rule="evenodd" clip-rule="evenodd" d="M30.0095 0.000339825C46.615 0.000339825 60.0091 13.3944 60.0091 30.0783C60.0091 46.5272 46.4584 60.078 29.7745 59.9997C13.6389 59.843 0.0881348 46.5272 0.0881348 30C0.0881348 13.3944 13.4039 -0.0779883 30.0095 0.000339825ZM7.21599 45.6656C7.21599 45.9789 7.37265 46.1356 7.5293 46.3706C8.70422 48.0155 10.0358 49.582 11.6024 50.9136C12.3073 51.5402 13.0123 52.1669 13.7956 52.7151C15.9887 54.1251 18.2603 55.4566 20.7668 56.3182C22.8033 57.0232 24.9181 57.5715 27.033 57.8065C28.6779 57.9631 30.4011 58.0415 32.046 57.8065C32.9859 57.6498 34.0042 57.6498 34.9441 57.2582C35.1008 57.3365 35.1791 57.1799 35.2575 57.1799C37.2157 56.8666 39.0955 56.2399 40.9754 55.4566C47.085 52.7935 51.7064 48.4854 54.6828 42.5325C57.346 37.2845 58.2076 31.7232 57.346 25.9269C56.5627 20.3656 54.2129 15.5093 50.4531 11.4362C45.4401 5.71829 39.0172 2.74182 31.4194 2.27186C28.0513 2.03687 24.6832 2.50684 21.4717 3.60343C16.2237 5.32665 11.9157 8.30312 8.39091 12.6112C4.39618 17.5458 2.43798 23.1855 2.20299 29.4517C2.12466 31.0183 2.28132 32.5065 2.51631 34.0731C2.98627 37.5978 4.16119 40.9659 5.96274 44.0207C6.43271 44.4907 6.74602 45.1173 7.21599 45.6656Z" fill="#AAADC0"/>
<path fill-rule="evenodd" clip-rule="evenodd" d="M34.9442 57.1799C34.0043 57.6499 32.986 57.6499 32.0461 57.7282C30.4012 57.9632 28.678 57.8849 27.0331 57.7282C24.9182 57.4933 22.8034 56.945 20.7668 56.24C18.2603 55.3784 15.9888 54.0468 13.7956 52.6369C13.0123 52.0886 12.3074 51.462 11.6024 50.8354C10.0359 49.5038 8.7043 47.9372 7.52938 46.2923C7.37272 46.0573 7.21606 45.8224 7.21606 45.5874C9.09594 41.3577 9.80089 36.893 10.1925 32.3499C10.3492 30.2351 10.4275 28.1202 10.8192 26.0054C11.2108 23.5772 12.1507 21.384 13.874 19.5041C15.4405 17.8592 17.3987 16.7626 19.5136 15.9794C21.2368 15.2744 23.0383 14.6478 24.9965 14.5695C26.7981 14.4911 28.5213 14.7261 30.2445 15.1178C32.8294 15.7444 35.4142 16.5277 37.8424 17.7026C39.8006 18.4859 41.8371 19.2691 43.8736 19.8958C45.9885 20.5224 48.1033 21.2273 49.9049 22.5589C52.1764 24.2821 52.803 26.4753 51.7848 29.1385C51.1581 30.7834 49.9832 32.0366 48.8083 33.2899C46.6934 35.4831 44.4219 37.5196 42.3854 39.7911C40.0355 42.5326 37.9207 45.3524 36.4324 48.6422C35.1792 51.3837 34.4742 54.2035 34.9442 57.1799ZM50.0615 31.41C49.9832 31.41 49.9049 31.41 49.8266 31.4883C49.7482 31.4883 49.6699 31.5667 49.6699 31.645C49.6699 31.645 49.6699 31.645 49.6699 31.7233C49.7482 31.7233 49.8266 31.645 49.8266 31.5667L50.0615 31.41C50.1399 31.41 50.2182 31.41 50.0615 31.41C50.1399 31.3317 50.0615 31.41 50.0615 31.41ZM26.0931 17.7809C23.1167 17.7809 20.6885 20.2091 20.6885 23.1072C20.6885 26.0837 23.1167 28.4335 26.0148 28.5119C28.9913 28.5119 31.3411 26.0837 31.4194 23.1072C31.4194 20.1307 29.0696 17.7809 26.0931 17.7809ZM30.4795 34.2298C30.9495 34.9348 31.8111 35.5614 32.8294 35.8747C34.8659 36.5796 36.9024 36.5797 38.9389 36.188C42.542 35.4831 45.9101 34.2298 48.9649 32.1933C49.1216 32.0366 49.4349 32.0366 49.5132 31.7233C49.3566 31.645 49.2783 31.7233 49.1999 31.8016C48.1817 32.4283 47.0851 32.8982 45.9885 33.3682C43.1687 34.5431 40.1922 35.3264 37.0591 35.4831C34.7876 35.6397 32.516 35.4831 30.4795 34.2298ZM45.2835 29.6084C45.9102 29.6084 46.4585 29.0602 46.4585 28.3552C46.4585 27.7286 45.9101 27.1803 45.2052 27.2586C44.5786 27.2586 44.1086 27.8069 44.1086 28.4335C44.1086 29.1385 44.5786 29.6084 45.2835 29.6084Z" fill="#A9ACBF"/>
<path fill-rule="evenodd" clip-rule="evenodd" d="M30.1661 15.1177C28.4429 14.8044 26.7197 14.4911 24.9181 14.5694C22.9599 14.6477 21.2367 15.2743 19.4352 15.9793C17.3203 16.7626 15.3621 17.8592 13.7956 19.5041C12.0723 21.3056 11.1324 23.4988 10.7408 26.0053C10.4274 28.1201 10.3491 30.235 10.1141 32.3499C9.72249 36.8929 9.01754 41.4359 7.13766 45.5873C6.58937 45.1173 6.27605 44.4124 5.96274 43.8641C4.16119 40.8093 2.98627 37.4412 2.51631 33.9164C2.28132 32.3499 2.12466 30.8616 2.20299 29.2951C2.43798 23.0288 4.39618 17.3892 8.39091 12.4545C11.8374 8.14648 16.2237 5.17001 21.4717 3.4468C24.6832 2.42853 28.0513 1.95857 31.4194 2.11522C38.9389 2.58519 45.3618 5.63998 50.4531 11.2013C54.2129 15.3527 56.4844 20.209 57.346 25.692C58.2076 31.4883 57.346 37.0495 54.6828 42.2975C51.7064 48.2505 47.085 52.5585 40.9754 55.2217C39.1739 56.005 37.294 56.6316 35.2575 56.9449C35.1008 56.9449 35.0225 57.1799 34.9441 57.0232C34.4742 54.0467 35.1791 51.2269 36.354 48.4855C37.8423 45.1957 39.9571 42.3759 42.307 39.6344C44.2652 37.3629 46.5367 35.248 48.7299 33.1331C49.9831 31.8799 51.0797 30.6266 51.7064 28.9818C52.8029 26.3186 52.1763 24.1254 49.8265 22.4022C48.0249 21.0706 45.9101 20.3657 43.7952 19.739C41.7587 19.1124 39.7222 18.3291 37.764 17.5459C37.3723 16.2143 36.4324 15.3527 35.1791 14.8827C33.5342 14.4911 31.8893 14.6477 30.1661 15.1177ZM55.7794 31.8016H55.9361C56.2494 30.705 56.2494 29.5301 56.2494 28.3551C56.2494 27.0236 56.0927 25.692 55.8577 24.3604C54.9961 20.0523 53.0379 16.2926 49.9831 13.0812C48.1033 11.123 45.9884 9.47806 43.8735 7.75484C41.9937 6.18828 39.9571 5.01336 37.6073 4.38673C35.3358 3.83843 33.1426 3.52512 30.7928 3.91676C30.6361 3.91676 30.4794 3.91677 30.4794 4.07342C30.4794 4.23008 30.6361 4.23008 30.7928 4.23008C34.2392 4.8567 37.529 5.9533 40.7404 7.20655C43.8735 8.4598 46.5367 10.2613 48.4949 13.0812C49.8265 15.0394 51.0797 17.0759 52.098 19.2691C53.4296 22.2455 54.4478 25.3003 55.0745 28.4335C55.3878 29.6867 55.6228 30.705 55.7794 31.8016Z" fill="#DADEEF"/>
<path fill-rule="evenodd" clip-rule="evenodd" d="M26.0929 17.7808C29.0693 17.7808 31.4192 20.2089 31.4192 23.1071C31.4192 26.0835 28.991 28.4334 26.0145 28.5117C23.0381 28.5117 20.6882 26.0835 20.6882 23.1071C20.6882 20.1306 23.1164 17.7808 26.0929 17.7808ZM29.8526 23.1854C29.8526 21.0705 28.2077 19.4257 26.0929 19.4257C23.978 19.4257 22.3331 21.0705 22.3331 23.1854C22.3331 25.2219 23.978 26.9451 26.0145 26.9451H26.0929C28.1294 26.9451 29.7743 25.3003 29.8526 23.1854Z" fill="#FCFDFB"/>
<path fill-rule="evenodd" clip-rule="evenodd" d="M30.4793 34.2297C32.5159 35.483 34.7874 35.6396 37.0589 35.5613C40.192 35.4046 43.1685 34.6997 45.9883 33.4464C47.0849 32.9765 48.1815 32.5065 49.1997 31.8799C49.2781 31.8015 49.3564 31.7232 49.5131 31.8015C49.4347 32.0365 49.1997 32.1148 48.9648 32.2715C45.91 34.308 42.5419 35.5613 38.9388 36.2662C36.9022 36.6579 34.7874 36.6579 32.8292 35.9529C31.8109 35.5613 30.871 34.9347 30.4793 34.2297ZM30.166 15.1176C31.8109 14.6477 33.5341 14.491 35.179 15.1176C36.4323 15.5876 37.3722 16.4492 37.7638 17.7808C35.414 16.5276 32.8292 15.7443 30.166 15.1176Z" fill="#7E8295"/>
<path fill-rule="evenodd" clip-rule="evenodd" d="M45.2833 29.6084C44.6567 29.6084 44.1084 29.0601 44.1084 28.4335C44.1084 27.8068 44.5784 27.2585 45.205 27.2585C45.8316 27.2585 46.3799 27.7285 46.4582 28.3551C46.3799 29.0601 45.9099 29.6084 45.2833 29.6084Z" fill="#FCFDFB"/>
<path fill-rule="evenodd" clip-rule="evenodd" d="M49.8266 31.5666C49.8266 31.6449 49.7482 31.7232 49.6699 31.7232C49.6699 31.5666 49.7482 31.4882 49.8266 31.5666ZM50.0616 31.4099L49.8266 31.5666L49.7482 31.4882C49.9049 31.4099 49.9832 31.4099 50.0616 31.4099Z" fill="#A9ACBF"/>
<path fill-rule="evenodd" clip-rule="evenodd" d="M55.7793 31.8017C55.5443 30.7051 55.3093 29.6868 55.1526 28.5902C54.526 25.3788 53.4294 22.324 52.1762 19.4259C51.2362 17.2327 49.983 15.1961 48.5731 13.2379C46.6149 10.4181 44.03 8.61658 40.8186 7.36333C37.5288 6.11008 34.3174 4.93515 30.8709 4.38686C30.7143 4.38686 30.5576 4.38686 30.5576 4.2302C30.5576 4.07355 30.7143 4.07355 30.8709 4.07355C33.1424 3.68191 35.414 3.91689 37.6855 4.54352C40.0353 5.17014 42.0718 6.42339 43.9517 7.91162C46.0666 9.63484 48.1814 11.2797 50.0613 13.2379C53.1161 16.4494 55.0743 20.2091 55.9359 24.5172C56.1709 25.8488 56.3276 27.1803 56.3276 28.5119C56.3276 29.6085 56.3276 30.7834 56.0142 31.9584L55.7793 31.8017Z" fill="#FFFEFC"/>
<path fill-rule="evenodd" clip-rule="evenodd" d="M29.8527 23.1855C29.8527 25.222 28.2079 26.9452 26.1713 26.9452H26.093C24.0565 26.9452 22.3333 25.3003 22.3333 23.1855V23.1072C22.3333 20.9923 24.0565 19.3474 26.093 19.3474C28.1295 19.3474 29.8527 21.0706 29.8527 23.1855Z" fill="#7E8295"/>
<path fill-rule="evenodd" clip-rule="evenodd" d="M148.676 38.3027C148.598 38.381 148.52 38.381 148.441 38.4594C146.013 41.2009 142.959 41.6708 139.669 40.8092C135.596 39.7909 133.402 36.8928 132.541 32.8981C131.993 30.3132 132.149 27.7284 133.168 25.3003C134.969 20.9922 139.042 18.6424 143.663 19.269C145.778 19.5823 147.737 20.2873 149.225 21.8538C150.321 23.0287 150.948 24.4386 151.183 26.0052C151.261 26.3185 151.105 26.3968 150.87 26.3968C149.93 26.3968 148.911 26.3968 147.972 26.3968C147.737 26.3968 147.658 26.3185 147.58 26.0835C147.11 23.9687 145.7 22.7937 143.663 22.4021C141.314 21.9321 139.277 22.4021 137.711 24.282C136.301 26.0052 135.909 28.1201 135.909 30.3133C135.909 31.9581 136.222 33.5247 136.927 34.9346C138.572 38.0677 142.645 39.1643 145.7 37.3628C147.423 36.3445 147.972 34.6996 148.128 32.8197C148.128 32.4281 147.893 32.5064 147.658 32.5064C146.092 32.5064 144.603 32.5064 143.037 32.5064C142.567 32.5064 142.489 32.3498 142.489 31.9581C142.489 31.3315 142.489 30.7832 142.489 30.1566C142.489 29.765 142.645 29.6866 142.959 29.6866C145.622 29.6866 148.363 29.6866 151.026 29.6866C151.34 29.6866 151.496 29.765 151.496 30.0783C151.496 33.5247 151.496 36.8928 151.496 40.3392C151.496 40.6526 151.418 40.7309 151.105 40.7309C150.478 40.7309 149.695 40.8875 149.225 40.6526C148.755 40.3392 148.911 39.556 148.755 38.9293C148.755 38.6944 148.676 38.4594 148.676 38.3027ZM86.6406 26.3968C86.1706 26.3968 85.7007 26.3968 85.1524 26.3968C84.8391 26.3968 84.7607 26.3185 84.6824 26.0052C84.0558 23.812 82.6459 22.4804 80.3744 22.2455C77.8679 22.0105 75.753 22.7938 74.4998 25.0653C72.6199 28.5117 72.6982 32.0365 74.5781 35.4046C75.8313 37.6761 78.5728 38.6944 81.0793 37.9894C83.2725 37.3628 84.2908 35.7179 84.7607 33.603C84.9174 32.7414 84.9174 32.7414 85.779 32.7414C86.5623 32.7414 87.3456 32.7414 88.1288 32.7414C88.4422 32.7414 88.5205 32.8197 88.4422 33.1331C88.0505 37.2845 85.3874 40.4959 81.3143 41.1225C75.4397 42.0625 70.5834 38.4594 69.6434 32.5848C69.2518 29.9999 69.4868 27.4934 70.505 25.0653C72.3066 20.9922 76.3013 18.799 80.766 19.3473C82.8809 19.6606 84.8391 20.3656 86.4056 21.9321C87.5022 23.1071 88.1288 24.517 88.3638 26.0835C88.4422 26.3968 88.3638 26.4752 88.0505 26.4752C87.6589 26.3185 87.1106 26.3968 86.6406 26.3968ZM201.94 40.6526C200.608 40.6526 199.433 40.6526 198.18 40.6526C197.867 40.6526 197.71 40.4959 197.632 40.2609C196.3 38.0677 194.89 35.9529 193.558 33.7597C193.323 33.368 193.245 33.368 192.854 33.6814C191.522 34.6213 190.974 35.8745 191.209 37.5194C191.365 38.381 191.209 39.321 191.209 40.2609C191.209 40.6526 191.052 40.7309 190.739 40.7309C189.955 40.7309 189.172 40.7309 188.389 40.7309C187.997 40.7309 187.919 40.5742 187.919 40.1826C187.919 36.9711 187.919 33.7597 187.919 30.4699C187.919 27.1018 187.919 23.7337 187.919 20.2873C187.919 19.739 188.075 19.5823 188.624 19.6606C189.329 19.739 190.034 19.739 190.739 19.6606C191.209 19.6606 191.287 19.8173 191.287 20.2089C191.287 23.7337 191.287 27.2585 191.287 30.7832V31.4098L191.444 31.4882C191.679 31.1749 191.992 30.8615 192.227 30.5482C193.793 28.9033 195.36 27.3368 197.005 25.6919C197.162 25.5352 197.318 25.3786 197.553 25.3786C198.806 25.3786 200.06 25.3786 201.313 25.3786C201.313 25.6136 201.078 25.6919 201 25.8485C199.355 27.4151 197.788 28.9817 196.065 30.5482C195.673 30.8615 195.673 31.0965 195.987 31.5665C197.867 34.3863 199.746 37.2061 201.626 40.0259C201.626 40.2609 201.783 40.4176 201.94 40.6526ZM163.245 33.9163C161.522 33.9163 159.877 33.9163 158.154 33.9163C157.763 33.9163 157.684 33.9947 157.684 34.3863C157.841 37.4411 160.661 39.321 163.48 38.1461C164.264 37.8328 164.89 37.2061 165.204 36.3445C165.36 35.9529 165.595 35.8745 165.909 35.8745C166.614 35.8745 167.397 35.8745 168.102 35.8745C168.493 35.8745 168.572 35.9529 168.415 36.3445C167.554 39.086 165.674 40.5742 162.854 40.9659C160.347 41.3575 157.998 40.8092 156.196 38.9293C154.943 37.5978 154.394 35.8745 154.238 34.073C154.081 31.8798 154.394 29.765 155.804 27.8851C157.606 25.5352 160.034 24.6736 162.854 25.1436C165.83 25.6919 167.632 27.5718 168.493 30.3916C168.807 31.4098 168.885 32.4281 168.807 33.5247C168.807 33.9163 168.65 33.9947 168.337 33.9947C166.692 33.9163 164.969 33.9163 163.245 33.9163ZM161.601 31.7232C162.776 31.7232 163.95 31.7232 165.047 31.7232C165.439 31.7232 165.517 31.6448 165.439 31.2532C165.125 29.2167 163.637 27.7284 161.679 27.6501C159.642 27.5718 157.998 28.9817 157.684 31.0965C157.606 31.4882 157.684 31.6448 158.154 31.6448C159.329 31.7232 160.426 31.7232 161.601 31.7232ZM90.7137 33.0547C90.7137 32.1148 90.8703 31.0965 91.1053 30.1566C92.1236 26.8668 95.0217 24.8303 98.6248 25.0653C101.366 25.2219 103.638 26.1619 104.969 28.59C106.536 31.5665 106.536 34.6996 104.891 37.5978C103.403 40.3392 100.818 41.2009 97.8415 41.0442C93.3768 40.8092 90.7137 37.7544 90.7137 33.0547ZM94.0818 33.0547C94.0818 34.3863 94.3168 35.5612 95.1 36.6578C96.3533 38.4594 98.7815 39.0077 100.583 37.7544C100.975 37.4411 101.366 37.1278 101.68 36.7362C103.011 34.778 103.09 31.4882 101.68 29.4516C100.035 27.1018 96.5883 27.1018 95.0217 29.53C94.3168 30.5482 94.0818 31.8015 94.0818 33.0547ZM202.801 33.1331C202.801 30.9399 203.271 28.9817 204.759 27.3368C206.248 25.6136 208.284 24.9869 210.477 24.9869C212.671 24.9869 214.707 25.6136 216.274 27.3368C217.919 29.2167 218.31 31.4882 218.153 33.9163C218.075 34.778 217.918 35.6396 217.605 36.4228C216.43 39.4776 213.61 41.2009 210.007 40.9659C205.778 40.7309 203.114 37.9894 202.88 33.7597C202.88 33.603 202.801 33.2897 202.801 33.1331ZM214.785 33.2897C214.785 31.7232 214.394 30.3916 213.845 29.4516C212.671 27.5718 210.164 27.1018 208.362 28.2767C207.893 28.59 207.501 28.9817 207.188 29.4516C205.856 31.4098 205.934 34.6996 207.188 36.5795C208.441 38.381 210.869 38.9293 212.671 37.6761C213.14 37.3628 213.454 37.0495 213.767 36.5795C214.55 35.5612 214.785 34.308 214.785 33.2897ZM119.068 27.5718C120.008 26.3968 121.105 25.5352 122.593 25.1436C123.925 24.8303 125.256 24.9086 126.51 25.4569C128.389 26.2402 129.173 27.8851 129.251 29.8433C129.329 33.2897 129.251 36.7362 129.251 40.1826C129.251 40.5742 129.173 40.6526 128.781 40.6526C127.998 40.6526 127.215 40.6526 126.431 40.6526C126.04 40.6526 125.883 40.5742 125.883 40.1043C125.883 37.2061 125.883 34.2297 125.883 31.3315C125.883 30.7049 125.805 30.0783 125.648 29.53C125.178 27.9634 123.69 27.3368 121.888 27.8067C120.322 28.2767 119.303 29.6866 119.303 31.4882C119.303 34.308 119.303 37.2061 119.303 40.0259C119.303 40.4959 119.225 40.7309 118.677 40.6526C117.972 40.5742 117.189 40.5742 116.484 40.6526C116.092 40.6526 115.935 40.5742 115.935 40.1043C115.935 37.9111 115.935 35.7962 115.935 33.603C115.935 31.0965 115.935 28.59 115.935 26.0835C115.935 25.5352 116.092 25.3786 116.64 25.4569C117.345 25.5352 117.972 25.4569 118.677 25.4569C119.068 25.4569 119.225 25.5352 119.147 25.9269C119.068 26.4752 119.068 27.0235 119.068 27.5718ZM183.297 30.5482C183.219 30.5482 183.141 30.5482 183.063 30.5482C182.201 30.6266 181.653 30.5482 181.261 29.53C180.321 27.1801 176.561 27.1018 174.995 29.295C174.446 29.9999 174.211 30.8615 174.055 31.8015C173.898 33.2897 173.898 34.778 174.525 36.1879C175.308 37.9111 176.718 38.6944 178.519 38.4594C180.008 38.2244 181.026 37.2845 181.418 35.6396C181.496 35.1696 181.731 35.0129 182.201 35.0913C182.984 35.0913 183.689 35.0913 184.472 35.0913C184.864 35.0913 184.942 35.2479 184.864 35.5612C184.081 39.321 181.418 41.4358 177.501 41.2009C173.585 40.9659 171 38.381 170.687 34.3863C170.53 32.6631 170.687 30.9399 171.392 29.295C172.567 26.5535 175.23 24.9869 178.363 25.1436C180.243 25.2219 181.966 25.6919 183.376 27.0235C184.237 27.8851 184.707 28.9817 184.942 30.1566C185.021 30.5482 184.864 30.7049 184.472 30.6266C184.159 30.5482 183.767 30.5482 183.297 30.5482ZM112.254 33.1331C112.254 35.4046 112.254 37.6761 112.254 39.9476C112.254 40.5742 112.097 40.7309 111.549 40.6526C110.844 40.5742 110.217 40.5742 109.512 40.6526C109.042 40.6526 108.886 40.5742 108.886 40.0259C108.886 35.9529 108.886 31.8798 108.886 27.8067C108.886 27.1801 108.886 26.5535 108.886 25.9269C108.886 25.5352 108.964 25.4569 109.356 25.4569C110.139 25.4569 110.922 25.4569 111.706 25.4569C112.176 25.4569 112.332 25.5352 112.332 26.0835C112.254 28.4334 112.254 30.7832 112.254 33.1331ZM110.687 19.6606C111.157 19.739 111.862 19.4256 112.176 19.739C112.489 20.0523 112.254 20.7572 112.254 21.3055C112.254 21.7755 112.489 22.4021 112.176 22.7154C111.862 23.0287 111.236 22.7937 110.766 22.7937C110.139 22.7937 109.356 23.0287 108.964 22.7154C108.651 22.3238 108.886 21.5405 108.886 20.9922C108.886 19.6606 108.886 19.6606 110.217 19.6606H110.687Z" fill="#8D90A3"/>
</svg>
