<svg width="350" height="60" viewBox="0 0 350 60" fill="none" xmlns="http://www.w3.org/2000/svg">
<path d="M51.5804 35.8721C50.5339 36.5116 49.313 36.6279 48.3827 36.1046C47.2199 35.407 46.5223 33.8372 46.5223 31.686V25.1163C46.5223 21.9767 45.3013 19.7093 43.2083 19.1279C39.6618 18.0814 36.9874 22.4419 35.999 24.0698L29.7199 34.1279V21.7442C29.6618 18.8953 28.7316 17.2093 26.9874 16.6861C25.8246 16.3372 24.0804 16.5116 22.3944 19.0698L8.38273 41.5116C6.52227 37.9651 5.53389 34.0116 5.53389 30C5.53389 16.4535 16.406 5.46511 29.7199 5.46511C43.0339 5.46511 53.906 16.4535 53.906 30V30.0581V30.1163C54.0223 32.7326 53.2083 34.8256 51.5804 35.8721ZM59.2548 30V29.9419V29.8837C59.1967 13.4302 45.9409 0 29.7199 0C13.4409 0 0.185059 13.4302 0.185059 30C0.185059 46.5116 13.4409 60 29.7199 60C37.2199 60 44.313 57.1511 49.7781 51.9767C50.8827 50.9302 50.9409 49.2442 49.8944 48.1395C48.906 47.0349 47.2199 46.9767 46.1153 47.9651C46.1153 47.9651 46.1153 47.9651 46.0571 48.0233C41.6385 52.2093 35.7083 54.593 29.6037 54.593C22.4525 54.593 16.0571 51.4535 11.6385 46.4535L24.2548 26.2209V35.5814C24.2548 40.0581 25.999 41.5116 27.4525 41.9186C28.906 42.3256 31.1153 42.0349 33.499 38.2558L40.4176 27.0349C40.6502 26.686 40.8246 26.3372 41.0571 26.1046V31.8023C41.0571 35.9884 42.7432 39.3605 45.6502 40.9884C48.2664 42.5 51.5804 42.3256 54.313 40.6395C57.6851 38.4302 59.4874 34.593 59.2548 30ZM100.418 19.7674C101.115 20.1744 101.755 21.1628 101.755 22.0349C101.755 23.4302 100.592 24.593 99.2548 24.593C98.906 24.593 98.6153 24.4767 98.3246 24.4186C96.7548 23.2558 94.7781 22.5 92.6851 22.5C87.7432 22.5 84.3711 26.5116 84.3711 31.5116C84.3711 36.5116 87.8013 40.4651 92.6851 40.4651C95.1269 40.4651 97.3362 39.4767 98.9641 37.907C99.3711 37.6163 99.8944 37.4419 100.418 37.4419C101.755 37.4419 102.801 38.4884 102.801 39.8256C102.801 40.6977 102.278 41.4535 101.639 41.8605C99.2548 43.8953 96.0571 45.2326 92.7432 45.2326C85.185 45.2326 79.0223 39.0116 79.0223 31.3372C79.0223 23.6628 85.185 17.4419 92.7432 17.4419C95.5339 17.3837 98.2083 18.2558 100.418 19.7674ZM114.255 25.5814C119.429 25.5814 123.732 29.9419 123.732 35.3488C123.732 40.6977 119.371 45.2907 114.255 45.2907C108.848 45.2907 104.371 40.7558 104.371 35.3488C104.371 29.9419 108.848 25.5814 114.255 25.5814ZM114.197 40.4651C116.464 40.4651 118.383 38.3139 118.383 35.407C118.383 32.5 116.464 30.6395 114.197 30.6395C111.755 30.6395 109.72 32.4419 109.72 35.407C109.72 38.2558 111.755 40.4651 114.197 40.4651ZM126.987 42.2674V28.5465C126.987 27.0349 128.15 25.8139 129.662 25.8139C131.115 25.8139 132.336 27.0349 132.336 28.5465V42.2674C132.336 43.7791 131.115 45 129.662 45C128.208 45 126.987 43.7209 126.987 42.2674ZM126.58 20.6395C126.58 18.8372 127.976 17.4419 129.662 17.4419C131.406 17.4419 132.801 18.8953 132.801 20.6395C132.801 22.3837 131.406 23.7791 129.662 23.7791C127.918 23.7209 126.58 22.3256 126.58 20.6395ZM142.569 34.8256V42.2674C142.569 43.7791 141.348 45 139.894 45C138.441 45 137.22 43.7791 137.22 42.2674V27.907C137.22 26.7442 138.15 25.8139 139.313 25.8139C140.476 25.8139 141.348 26.8023 141.348 27.907C143.499 25.8721 145.418 25.5814 147.22 25.5814C152.569 25.5814 154.952 29.593 154.952 34.1861V42.2674C154.952 43.7791 153.732 45 152.278 45C150.825 45 149.604 43.7791 149.604 42.2674V34.8256C149.604 32.5 149.313 30.5233 145.941 30.5233C143.557 30.5233 142.569 32.5 142.569 34.8256ZM172.278 37.6744C171.639 37.6744 171.232 37.3837 170.883 36.9767L164.662 30.2326V42.2674C164.662 43.7791 163.441 45 161.987 45C160.534 45 159.313 43.7791 159.313 42.2674V18.4302C159.487 18.0233 159.894 17.7326 160.301 17.7326C160.766 17.7326 161.173 18.1395 161.464 18.4302L171.406 29.593C171.697 29.9419 172.046 30.1163 172.278 30.1163C172.452 30.1163 172.859 29.9419 173.15 29.593L183.092 18.4302C183.383 18.1395 183.732 17.7326 184.255 17.7326C184.72 17.7326 185.127 18.0233 185.243 18.4302V42.2674C185.243 43.7791 184.08 45 182.569 45C181.115 45 179.894 43.7791 179.894 42.2674V30.2326L173.673 36.9767C173.208 37.3837 172.801 37.6744 172.278 37.6744ZM197.976 40.4651C200.359 40.4651 202.394 38.3139 202.394 35.407C202.394 32.5 200.301 30.5814 197.976 30.5814C195.65 30.5814 193.732 32.5581 193.732 35.407C193.732 38.1977 195.592 40.4651 197.976 40.4651ZM203.673 42.907L203.557 42.2674C202.511 44.3023 199.197 45.2326 197.104 45.2326C192.104 45.2326 188.383 40.6977 188.383 35.2907C188.383 29.9419 192.162 25.5232 197.394 25.5232C198.266 25.5232 201.29 25.7558 203.615 28.4884L203.732 27.8488C203.732 26.686 204.604 25.7558 205.766 25.7558C206.929 25.7558 207.859 26.7442 207.859 27.8488V42.8488C207.859 44.0116 206.929 44.9419 205.766 44.9419C204.545 45 203.673 44.0116 203.673 42.907ZM222.569 30.5233H221.987C218.615 30.6977 217.976 32.6163 217.976 34.8256V42.2674C217.976 43.7791 216.755 45 215.301 45C213.848 45 212.627 43.7791 212.627 42.2674V27.907C212.627 26.7442 213.557 25.8139 214.72 25.8139C215.883 25.8139 216.755 26.8023 216.755 27.907C218.732 26.0465 220.359 25.6395 221.987 25.5814H222.511C223.79 25.5814 224.952 26.6861 224.952 28.0814C225.011 29.3605 223.848 30.5233 222.569 30.5233ZM243.208 40.9884C243.441 41.3953 243.615 41.8023 243.615 42.2674C243.615 43.6628 242.336 44.9419 240.941 44.9419C240.011 44.9419 239.197 44.2442 238.557 43.4302L232.394 36.2791V42.2093C232.394 43.7209 231.173 44.9419 229.72 44.9419C228.266 44.9419 227.045 43.7209 227.045 42.2093V20.407C227.045 18.8953 228.208 17.6744 229.72 17.6744C231.232 17.6744 232.394 18.8953 232.394 20.407V34.0116L238.557 27.2093C239.197 26.5116 239.952 25.7558 240.883 25.7558C242.22 25.7558 243.441 26.9768 243.441 28.3721C243.441 28.7791 243.325 29.2442 243.092 29.593L238.208 34.9419L243.208 40.9884ZM253.673 30.5814C252.22 30.5814 249.836 31.3372 249.836 33.6047H257.569C257.511 31.3372 255.069 30.5814 253.673 30.5814ZM260.65 37.0349H249.836C249.836 40.2326 252.918 40.7558 254.255 40.7558C255.243 40.7558 256.639 40.5814 257.743 40.0581C258.092 39.8256 258.615 39.6512 259.139 39.6512C260.301 39.6512 261.29 40.6395 261.29 41.8605C261.29 42.6744 260.766 43.3721 260.127 43.7791C258.499 45 256.348 45.2907 254.313 45.2907C248.906 45.2907 244.429 42.3837 244.429 35.5814C244.429 30.2326 247.162 25.5814 253.557 25.5814C258.732 25.5814 262.627 28.9535 262.743 34.9419C262.743 36.0465 261.813 37.0349 260.65 37.0349ZM275.534 45.2326H274.08C270.011 45.2326 267.627 43.4302 267.627 37.093V30.5233H266.232C264.952 30.5233 263.848 29.3605 263.848 28.0814C263.848 26.6861 265.011 25.5814 266.232 25.5814H267.627V20.5233C267.627 19.0116 268.79 17.7907 270.301 17.7907C271.755 17.7907 272.976 19.0116 272.976 20.5233V25.5814H275.185C276.464 25.5814 277.569 26.6861 277.569 28.0814C277.569 29.3605 276.406 30.5233 275.185 30.5233H272.976V36.0465C272.976 39.7093 273.15 40.4651 274.778 40.4651H275.534C276.813 40.4651 277.918 41.5116 277.918 42.8488C277.918 44.1279 276.813 45.2326 275.534 45.2326ZM301.406 19.7674C302.104 20.1744 302.743 21.1628 302.743 22.0349C302.743 23.4302 301.58 24.593 300.243 24.593C299.894 24.593 299.604 24.4767 299.313 24.4186C297.743 23.2558 295.766 22.5 293.673 22.5C288.732 22.5 285.359 26.5116 285.359 31.5116C285.359 36.5116 288.79 40.4651 293.673 40.4651C296.115 40.4651 298.325 39.4767 299.952 37.907C300.359 37.6163 300.883 37.4419 301.406 37.4419C302.743 37.4419 303.79 38.4884 303.79 39.8256C303.79 40.6977 303.266 41.4535 302.627 41.8605C300.243 43.8953 297.045 45.2326 293.732 45.2326C286.173 45.2326 280.011 39.0116 280.011 31.3372C280.011 23.6628 286.173 17.4419 293.732 17.4419C296.522 17.3837 299.255 18.2558 301.406 19.7674ZM314.952 40.4651C317.336 40.4651 319.371 38.3139 319.371 35.407C319.371 32.5 317.278 30.5814 314.952 30.5814C312.569 30.5814 310.708 32.5581 310.708 35.407C310.708 38.1977 312.627 40.4651 314.952 40.4651ZM320.65 42.907L320.534 42.2674C319.487 44.3023 316.173 45.2326 314.08 45.2326C309.08 45.2326 305.359 40.6977 305.359 35.2907C305.359 29.9419 309.138 25.5232 314.371 25.5232C315.243 25.5232 318.266 25.7558 320.592 28.4884L320.708 27.8488C320.708 26.686 321.58 25.7558 322.743 25.7558C323.906 25.7558 324.836 26.7442 324.836 27.8488V42.8488C324.836 44.0116 323.906 44.9419 322.743 44.9419C321.522 45 320.65 44.0116 320.65 42.907ZM339.429 40.4651C341.813 40.4651 343.673 38.1977 343.673 35.407C343.673 32.5 341.755 30.5814 339.429 30.5814C337.045 30.5814 335.011 32.5 335.011 35.407C335.011 38.3139 337.045 40.4651 339.429 40.4651ZM335.011 43.6628V50.4651C335.011 51.9767 333.79 53.1977 332.336 53.1977C330.883 53.1977 329.662 51.9767 329.662 50.4651V27.907C329.662 26.7442 330.592 25.8139 331.755 25.8139C332.918 25.8139 333.79 26.8023 333.79 28.1395C335.766 26.1046 338.208 25.5814 340.069 25.5814C345.243 25.5814 349.08 29.9419 349.08 35.3488C349.08 40.6977 345.418 45.2907 340.359 45.2907C338.79 45.2325 336.464 44.7674 335.011 43.6628Z" fill="#17181B"/>
</svg>
