<svg width="342" height="958" viewBox="0 0 342 958" fill="none" xmlns="http://www.w3.org/2000/svg">
<g style="mix-blend-mode:multiply" opacity="0.16">
<mask id="mask0" style="mask-type:alpha" maskUnits="userSpaceOnUse" x="-491" y="179" width="677" height="600">
<path d="M-222.805 207.236C-373.5 218.699 -445.535 406.776 -462.716 499.382C-466.671 515.506 -470.543 559.966 -454.392 608.811C-434.205 669.869 -311.092 626.057 -258.674 641.394C-206.257 656.73 -155.316 707.887 -76.0869 738.828C3.14249 769.769 59.3885 702.898 54.7322 625.116C50.0759 547.334 193.622 578.844 159.131 412.592C124.641 246.341 -34.4356 192.908 -222.805 207.236Z" fill="#0B56FA"/>
</mask>
<g mask="url(#mask0)">
<rect x="271.748" y="848.752" width="1032.66" height="6.86915" transform="rotate(-162.276 271.748 848.752)" fill="#828282"/>
<rect x="277.326" y="831.304" width="1032.66" height="6.86915" transform="rotate(-162.276 277.326 831.304)" fill="#828282"/>
<rect x="282.903" y="813.855" width="1032.66" height="6.86915" transform="rotate(-162.276 282.903 813.855)" fill="#828282"/>
<rect x="288.479" y="796.407" width="1032.66" height="6.86915" transform="rotate(-162.276 288.479 796.407)" fill="#828282"/>
<rect x="294.056" y="778.959" width="1032.66" height="6.86915" transform="rotate(-162.276 294.056 778.959)" fill="#828282"/>
<rect x="299.632" y="761.51" width="1032.66" height="6.86915" transform="rotate(-162.276 299.632 761.51)" fill="#828282"/>
<rect x="305.208" y="744.062" width="1032.66" height="6.86915" transform="rotate(-162.276 305.208 744.062)" fill="#828282"/>
<rect x="310.784" y="726.614" width="1032.66" height="6.86915" transform="rotate(-162.276 310.784 726.614)" fill="#828282"/>
<rect x="316.361" y="709.166" width="1032.66" height="6.86915" transform="rotate(-162.276 316.361 709.166)" fill="#828282"/>
<rect x="321.937" y="691.717" width="1032.66" height="6.86915" transform="rotate(-162.276 321.937 691.717)" fill="#828282"/>
<rect x="327.514" y="674.269" width="1032.66" height="6.86915" transform="rotate(-162.276 327.514 674.269)" fill="#828282"/>
<rect x="333.09" y="656.821" width="1032.66" height="6.86915" transform="rotate(-162.276 333.09 656.821)" fill="#828282"/>
<rect x="338.666" y="639.372" width="1032.66" height="6.86915" transform="rotate(-162.276 338.666 639.372)" fill="#828282"/>
<rect x="344.242" y="621.924" width="1032.66" height="6.86915" transform="rotate(-162.276 344.242 621.924)" fill="#828282"/>
<rect x="349.819" y="604.476" width="1032.66" height="6.86915" transform="rotate(-162.276 349.819 604.476)" fill="#828282"/>
<rect x="355.395" y="587.027" width="1032.66" height="6.86915" transform="rotate(-162.276 355.395 587.027)" fill="#828282"/>
<rect x="360.971" y="569.579" width="1032.66" height="6.86915" transform="rotate(-162.276 360.971 569.579)" fill="#828282"/>
<rect x="366.548" y="552.131" width="1032.66" height="6.86915" transform="rotate(-162.276 366.548 552.131)" fill="#828282"/>
<rect x="372.125" y="534.682" width="1032.66" height="6.86915" transform="rotate(-162.276 372.125 534.682)" fill="#828282"/>
<rect x="377.701" y="517.234" width="1032.66" height="6.86915" transform="rotate(-162.276 377.701 517.234)" fill="#828282"/>
<rect x="383.277" y="499.786" width="1032.66" height="6.86915" transform="rotate(-162.276 383.277 499.786)" fill="#828282"/>
<rect x="389.551" y="480.156" width="1032.66" height="6.86915" transform="rotate(-162.276 389.551 480.156)" fill="#828282"/>
<rect x="395.824" y="460.527" width="1032.66" height="6.86915" transform="rotate(-162.276 395.824 460.527)" fill="#828282"/>
<rect x="402.097" y="440.898" width="1032.66" height="6.86915" transform="rotate(-162.276 402.097 440.898)" fill="#828282"/>
<rect x="408.371" y="421.269" width="1032.66" height="6.86915" transform="rotate(-162.276 408.371 421.269)" fill="#828282"/>
<rect x="414.644" y="401.639" width="1032.66" height="6.86915" transform="rotate(-162.276 414.644 401.639)" fill="#828282"/>
<rect x="420.917" y="382.01" width="1032.66" height="6.86915" transform="rotate(-162.276 420.917 382.01)" fill="#828282"/>
</g>
</g>
</svg>
